<svg id="Layer_1" data-name="Layer 1" xmlns="http://www.w3.org/2000/svg" viewBox="0 0 500 500"><defs><style>.cls-1{fill:#ebebeb;}.cls-2{fill:#455a64;}.cls-3{opacity:0.2;}.cls-10,.cls-4{opacity:0.1;}.cls-4,.cls-5,.cls-6,.cls-9{isolation:isolate;}.cls-5,.cls-9{fill:#fff;}.cls-5{opacity:0.3;}.cls-6{fill:#dbdbdb;opacity:0.7;}.cls-7{fill:#f8af00;}.cls-8{opacity:0.6;}.cls-11,.cls-9{opacity:0.5;}.cls-12{fill:#263238;}</style></defs><title>FLIGHT</title><g id="freepik--background-complete--inject-7"><path class="cls-1" d="M372.31,154l87.61-.14s-4.37-5.66-9.17-6.37c0,0-9.38-27.79-25-28-14.54-.16-20.34,17.13-20.34,17.13s-6.75-7.74-13.18-4.19-10,13.71-10,13.71S374.93,150,372.31,154Z"/><path class="cls-1" d="M150.87,249.69l-110.79.17s0-7.08,15.25-8.49c0,0,13.89-31,35.17-26.83,13.26,2.57,20.06,20.75,20.06,20.75s10-14.33,18-11.57,12.79,18,12.79,18S149.61,245.69,150.87,249.69Z"/><path class="cls-1" d="M383.6,446.74l-110.79.17s0-7.08,15.25-8.49c0,0,13.89-31,35.17-26.84,13.26,2.57,20.06,20.75,20.06,20.75s10-14.33,18-11.57,12.79,18,12.79,18S382.34,442.74,383.6,446.74Z"/><path class="cls-1" d="M382,77.27l-75.33.11s7.1-6.63,10.26-6.63,12.34-22.23,24.13-21.31S359.11,66.9,359.11,66.9,373.43,62.39,382,77.27Z"/><path class="cls-1" d="M145.08,417.87,69.74,418s7.1-6.62,10.26-6.63,12.35-22.23,24.13-21.3,18.07,17.46,18.07,17.46S136.51,403,145.08,417.87Z"/><path class="cls-1" d="M133.6,99.36l-64.42.1s3.2-4.18,6.73-4.71c0,0,6.83-20.45,18.33-20.62,10.69-.15,15,12.55,15,12.55s4.94-5.7,9.68-3.1,7.42,10,7.42,10S131.67,96.49,133.6,99.36Z"/><path class="cls-1" d="M455.25,382.86l-64.42.1s3.2-4.18,6.73-4.7c0,0,6.83-20.46,18.33-20.62,10.69-.16,15,12.55,15,12.55s4.94-5.71,9.68-3.11S448,377.14,448,377.14,453.32,380,455.25,382.86Z"/></g><g id="freepik--World--inject-7"><path class="cls-2" d="M429.06,250a178.23,178.23,0,0,1-34.2,105.26h0A179.07,179.07,0,1,1,250,70.94q7.37,0,14.59.59A179,179,0,0,1,429.06,250Z"/><g class="cls-3"><path d="M288.67,334.51c-2.26,6,1.5,6.27,1.75,8.78s0,7.27-7.27,14.55-19.31,5.76-21.82,8.77-6.77,15.8-12.79,20.07-7,1.75-15.55,3.51S218,403,215.44,408.24s.5,14.05-5.52,14.3-8.78-12.79-14.29-19.81-7.28-13.3-9-21.57,1-25.58,0-32.35S167.54,330,161,321.72s-15.53-24.82-15-30.34a22.41,22.41,0,0,1,7.52-13.79c3-2.26,1.76-3.51,2.26-5.52s3-2.51,3.51-5-1.5-10-4-11.28-4.26,3-5.77,2.25-6-6-7.77-6.52-1.26,3.26-3.76-1.5-3.77-16.8-5.77-18.81-3.51,3.51-8.28,0-6.77-10.28-8.78-11.28-4.76.25-6.82-3.77,1.81-11.28,0-10.53-5.71,6.52-6.72,1,5-24.07,4-34.1,2.5-20.57,9.52-29.09c0,0,1-5.52,2-9s22.57-17.55,25.08-21.57c1-1.67,1.39-4.3,1.77-7.13a178.31,178.31,0,0,1,106-34.8q7.37,0,14.59.59l.5.67c2.17,2.75,4.52,4.51,10.87,6.85s7.86,5.35,6.52,7.86-3.51,3-6,3.18-4.85-1.18-7.52.5-5.35,10.7-8.86,11.2-9.7-8-11-10.53,3-7.86,1-10.37-5.64-2-11.33-2.51-18.88,1.68-18.38,3.85,19.39-.34,19.89,4-13.87,11.7-16.38,11-5.85-5-9.53-5.51-6.69,2.5-9,2.84-5-2.51-8.56-1.84-4.34,3.68-6.19,4.85-6.18,1.17-6.68,3.84,5.52,4.19,7,5.86-1.84,7.35-.34,8.52,10.87-7,13.22-9,4.34-10.69,9.36-10.53,6.69,8.69,8.36,9.53,5.35-2,10.86-.84,9.36,13.21,10.37,16.89,3.34,7.36,1.34,8.86-11-1-12.21-3.34,6-5.86,5.52-6.69-4.68-2-6.86-.7-3.17,4-5.51,4.71-8.53-6.35-10.2-4.34,1.67,8.36,3.34,9.86,7.86,2.34,8.36,4-4.18,5.35-9.86,5-10.37-4.68-12.54-2.84-1,6.68-2.51,8.36-9.7.5-13.71,4.84S182,160.47,178,164.15s-5.85-1-11.2,4.18-6.19,16.72-6.36,20.73,0,7.19-1.33,6.69-3.18-4-3.68-6.19,1.17-5.85,1.17-7.19-7.69-8.19-12.21-8.86-8.53,3-11.87,5.68-9.36,2.18-11.53,4.35-3.85,21.4-2.18,25.92,3.85,4.51,9.2,2.17,2.34-6.86,5.52-5.85a7.46,7.46,0,0,1,4.84,7c0,2.65-6.35,9-5.51,10.87s6.35-.34,9,.5,4,2.51,3.18,9.36-.33,12.21,3.68,14.46,6.27-3.26,8-2.5,4.27,4.76,6.78,4.51,1.25-2.51,6-4,3-2.51,4-5.52,4-5.52,7.27-4,1,3.76,1.25,6.27,6,2.76,10.54,4.26,7,0,16,3,9.53,12,13.29,13.54,16.3-1,25.33,5.52,6.52,18.56,11,22.07,21.32,8.27,27.84,9.53,7.52-3.26,12.79-2,8.27,2.76,10,10C310.52,315.08,290.92,328.49,288.67,334.51Z"/><path d="M153.91,206.28c.17,1.42,4.35,2,9.36,4.85s6.86,11.2,9.53,11,1.84-4,2.85-5,2.67-3.18,0-5.35-5.28-6.86-10.17-7.53-5.72-2.67-7.89-2.5a3.78,3.78,0,0,0-3.76,3.8A4.41,4.41,0,0,0,153.91,206.28Z"/><path d="M181.5,220.32c-.75,2.05,0,3.52,5.35,4.85s10.36-1.33,8.69-2.42-4.18-.59-3.17-2.43.66-4.51-3.69-4S182.17,218.49,181.5,220.32Z"/><path d="M200.22,220.89c-1.82.27-2.84,3.45-1,5.45s1.84,1.67,4,0,5.52-2.5,4.68-4.17S202.06,220.63,200.22,220.89Z"/><path d="M214.77,227.73c.82-2.51,5,0,6.85,2.63s1,6.52,0,9.36-1.67,6.18-4,4.85.17-5.35-.17-7.69S214.1,229.78,214.77,227.73Z"/><path d="M286.83,88.25c-.88,2.1,3.17,2.84,5.51,4.18s4.18,2.17,5.52,0-.5-4.69-2.34-5.19S287.66,86.24,286.83,88.25Z"/><path d="M318.42,107.81c1.55,1.62,4.18,1.33,6,3.68s1.17,6.35,3.51,7.52,4,0,4.18-1.67-3.34-5.85-3-6.69,4.85,1.17,5.86,3.68-1,6,1.33,6.68,1.84-2.34,2.85-3,3.17-.34,3-2.35-2.85-6.35-5-7.85-3.85-3.18-7.52-4-7.19-.16-9,1.34S317.47,106.8,318.42,107.81Z"/><path d="M390.76,139.32a3,3,0,0,1-.94,1.76c-3.52,2.5-7.7-6.19-12.54-7.86s-7-7.86-8-6.52-.67,3.18-2.17,5.35-3.68,1.67-4.68,5.85,4.68,11.87,3.34,14.38-3,1.67-5.69,1.51-2.17,2.17-5.67,1.16-.51-5.35-6-10.53-7.36-6.18-6.18-8.53-.5-5.68,2-6,4.52,3.34,6.19,4.34,3.84-2,4-4.68-5.85-6.35-8-8.43S344,111.48,344.84,110s3.35-1,4-4.68c.39-2.16-3-5.77-5.92-8.38A179.9,179.9,0,0,1,390.76,139.32Z"/><path d="M415.73,289.21c.5-5.35-2.18-5.69.5-15.55s-2.84-20.4-4.85-22.57-6.35-1.51-9.86.67-1,3.84-3.35,4.68-4.68-.51-6.85-.34-4.18,5.69-8.86,5.52-7.69-6.86-11.2-11.62-10.71-7.77-13-13.63,2.17-14.87,1.17-21.73-5.52-5.35-6.36-9.19.67-2,1.84-5.69-1.34-5.68,1-12,6.52-9.53,5.51-12.37-4.18-7.52-4.35-10.86,3.18-3.18,9.53-7.87,8-4.34,12.88-2.67a68.53,68.53,0,0,0,10.7,3c2.84.5,6.69,7.86,7.86,7.52s1.34-2.5,1.84-5.68a7.11,7.11,0,0,1,2.08-3.6,179.14,179.14,0,0,1-7.07,200.06C411.91,329.23,415.22,294.55,415.73,289.21Z"/></g><path class="cls-4" d="M388.72,363.22A179.07,179.07,0,1,1,250,70.94q7.37,0,14.6.59c1.33.1,2.66.22,4,.37A164.08,164.08,0,1,0,388.72,363.22Z"/><path class="cls-5" d="M429.06,250a178.16,178.16,0,0,1-34.2,105.26h0A180,180,0,0,1,330.53,410,181.09,181.09,0,0,0,387,359.37h0a180.15,180.15,0,0,0,7.11-201.22,176.12,176.12,0,0,0-11.24-16A180.87,180.87,0,0,0,334.8,99.5,178.87,178.87,0,0,0,256,74c-4.83-.39-9.74-.59-14.67-.59a180.62,180.62,0,0,0-43.25,5.22A179.05,179.05,0,0,1,250,70.94q7.37,0,14.6.59A179,179,0,0,1,429.06,250Z"/></g><g id="freepik--Clouds--inject-7"><path class="cls-6" d="M286.33,208.34a386.68,386.68,0,0,0,83.76-17.09s-4.08-2.85-8.6-2c0,0-8.77-17.69-23.68-14.39-13.87,3-19.51,16.49-19.5,16.54s-6.47-4.56-12.69-1.08-9.74,11.33-9.74,11.33S288.87,205.27,286.33,208.34Z"/><path class="cls-1" d="M166.72,234.93a386.85,386.85,0,0,1-102.15-38.6c0-.07-.06-5.05,13.54.87,0-.07,12.36-16.28,32-5.52,12.21,6.65,18.58,22,18.57,22s9.36-7.43,16.93-3.28,12.09,16.46,12.09,16.47S165.52,231.74,166.72,234.93Z"/><path class="cls-1" d="M437.8,217.28a387.33,387.33,0,0,1-102.15,38.6c0-.07,0-5,14.52-9.77,0-.07,13.28-26,33-30.05,12.28-2.59,18.42,8,18.43,8.07s9.15-14.4,16.34-15.83,11.41,7.56,11.41,7.58S436.71,215,437.8,217.28Z"/><path class="cls-1" d="M264.64,137.73a388.76,388.76,0,0,1-73.1-4.39s6.86-3.83,9.91-3.45,12-14.82,23.42-13.35,17.53,13.64,17.53,13.67S256.33,127.14,264.64,137.73Z"/><path class="cls-1" d="M229.76,418a388.59,388.59,0,0,1-72.57-11s6.76-3.21,9.79-2.56,11.82-13.74,23.18-11.24,17.42,15.22,17.42,15.25S221.45,406.65,229.76,418Z"/><path class="cls-6" d="M156.22,323.69a386,386,0,0,1-60-20.53,8.32,8.32,0,0,1,6.14-.84s6.26-12.35,16.93-8.57c9.93,3.46,14,14,14,14a8.73,8.73,0,0,1,9.1.5c4.46,3.23,7,9.39,7,9.39S154.38,321.13,156.22,323.69Z"/><path class="cls-6" d="M301,391.86a387.49,387.49,0,0,0,83.22-20.33,12.2,12.2,0,0,0-8.52-1.7s-8.68-17.35-23.48-13.47c-13.78,3.52-19.39,17.24-19.38,17.29s-6.43-4.31-12.62-.59-9.7,11.7-9.7,11.7S303.51,388.68,301,391.86Z"/></g><g id="freepik--Locators--inject-7"><path class="cls-7" d="M411.1,298.37c-.26-2.59-2-5.16-5.17-5.16s-4.91,2.57-5.17,5.16c-.4,4,2.3,7.61,5.17,10.91C408.8,306,411.5,302.36,411.1,298.37Zm-5.17,2.87a2.83,2.83,0,1,1,2.83-2.83h0A2.85,2.85,0,0,1,405.93,301.24Z"/><path class="cls-7" d="M242.57,370c-.34-3.47-2.73-6.92-6.93-6.92s-6.58,3.45-6.92,6.92c-.53,5.35,3.08,10.19,6.92,14.61C239.5,380.17,243.1,375.33,242.57,370Zm-6.93,3.84a3.79,3.79,0,1,1,3.8-3.79,3.79,3.79,0,0,1-3.8,3.79Z"/><path class="cls-7" d="M382.45,166.76c-.34-3.46-2.73-6.91-6.93-6.91s-6.58,3.45-6.92,6.91c-.53,5.35,3.08,10.2,6.92,14.62C379.38,177,383,172.11,382.45,166.76Zm-6.93,3.85a3.8,3.8,0,1,1,3.8-3.8h0a3.79,3.79,0,0,1-3.79,3.79Z"/><path class="cls-7" d="M283.93,309.91c-.26-2.59-2-5.17-5.17-5.17s-4.92,2.58-5.17,5.17c-.4,4,2.29,7.61,5.17,10.91C281.63,317.52,284.33,313.9,283.93,309.91Zm-5.17,2.87a2.84,2.84,0,1,1,2.83-2.85v0a2.85,2.85,0,0,1-2.83,2.83Z"/><path class="cls-7" d="M176.92,259.09c-.26-2.59-2-5.16-5.17-5.16s-4.91,2.57-5.17,5.16c-.4,4,2.3,7.61,5.17,10.91C174.62,266.7,177.32,263.08,176.92,259.09ZM171.75,262a2.83,2.83,0,1,1,2.84-2.83,2.83,2.83,0,0,1-2.84,2.83Z"/><path class="cls-7" d="M117.79,169.14c-.26-2.59-2-5.16-5.17-5.16s-4.91,2.57-5.17,5.16c-.4,4,2.3,7.61,5.17,10.91C115.49,176.75,118.19,173.13,117.79,169.14ZM112.62,172a2.83,2.83,0,1,1,2.83-2.83,2.83,2.83,0,0,1-2.83,2.83Z"/><path class="cls-7" d="M188.18,122.21c-.34-3.46-2.73-6.91-6.93-6.91s-6.58,3.45-6.92,6.91c-.53,5.35,3.08,10.19,6.92,14.61C185.1,132.4,188.71,127.56,188.18,122.21Zm-6.93,3.85a3.8,3.8,0,1,1,3.8-3.8,3.8,3.8,0,0,1-3.8,3.8Z"/></g><g id="freepik--Plane--inject-7"><g class="cls-8"><path class="cls-1" d="M243.5,342.24S71.2,379.75,54,350.46c-8-13.66,29.72-33.95,29.72-33.95s-25.1,17.88-13.65,24.92c21.35,13.11,139.21-16.66,139.21-16.66Z"/><path class="cls-1" d="M141,363.21l25.76-3.77c4.29-.65,8.58-1.21,12.86-1.9s8.56-1.29,12.84-2,8.55-1.35,12.81-2.1,8.51-1.52,12.79-2.22q12.76-2.4,25.49-5.16a217.46,217.46,0,0,1-25,7.45q-6.36,1.5-12.77,2.72c-4.27.82-8.56,1.54-12.85,2.27s-8.6,1.28-12.92,1.81c-2.15.26-4.31.52-6.47.75s-4.33.48-6.49.66C158.33,362.56,149.65,363.15,141,363.21Z"/><path class="cls-1" d="M75.93,328.08a10.75,10.75,0,0,0-1.48,3.16,6.86,6.86,0,0,0-.2,1.63,3.71,3.71,0,0,0,.37,1.46,4.68,4.68,0,0,0,2.14,2.08,14,14,0,0,0,3,1.16,37.1,37.1,0,0,0,6.8.94c2.31.18,4.66.21,7,.19s4.7-.06,7.06-.15l7.08-.3c4.74-.2,9.49-.51,14.29-.53a111.19,111.19,0,0,1-14,2.86c-1.18.19-2.37.34-3.56.45s-2.38.27-3.58.35c-2.39.19-4.8.28-7.21.32-4.82-.07-9.72-.26-14.5-1.9a13.88,13.88,0,0,1-3.43-1.75,6.33,6.33,0,0,1-2.45-3.22,5.34,5.34,0,0,1,.44-3.88A9,9,0,0,1,75.93,328.08Z"/><path class="cls-1" d="M217.23,192.16S389.82,156,393.55,122.29c1.74-15.74-41-18.86-41-18.86s28.76,5.21,22.64,17.17C362,146.4,217.23,192.16,217.23,192.16Z"/><path class="cls-1" d="M319.4,169.43c-8,3.49-16.13,6.5-24.36,9.3-2.05.72-4.12,1.39-6.19,2.05s-4.14,1.32-6.22,2c-4.16,1.28-8.35,2.43-12.53,3.62s-8.42,2.21-12.66,3.18-8.5,1.89-12.76,2.73a214.62,214.62,0,0,1-25.88,3.41c8.52-1.79,17-3.68,25.38-5.7,4.19-1.11,8.41-2,12.58-3.2s8.37-2.19,12.55-3.31,8.36-2.27,12.52-3.45,8.34-2.36,12.51-3.51Z"/><path class="cls-1" d="M364.41,110.8a6.17,6.17,0,0,1,3,2.2,5.41,5.41,0,0,1,.85,1.82,6.41,6.41,0,0,1,.13,2,9.61,9.61,0,0,1-1.25,3.76,18.63,18.63,0,0,1-2.19,3.17,51.78,51.78,0,0,1-11.52,9.49c-2.1,1.31-4.22,2.55-6.39,3.71-1.08.58-2.18,1.13-3.28,1.67s-2.2,1.1-3.33,1.58a113.74,113.74,0,0,1-13.71,5.28c4.17-2.6,8.44-4.93,12.64-7.36,2.1-1.23,4.23-2.38,6.29-3.65s4.16-2.45,6.17-3.76,4-2.6,6-4a51.24,51.24,0,0,0,5.45-4.52,21.6,21.6,0,0,0,2.25-2.62,8.57,8.57,0,0,0,1.47-3,5.84,5.84,0,0,0,.17-1.61,4.86,4.86,0,0,0-.42-1.59A6.48,6.48,0,0,0,364.41,110.8Z"/></g><path class="cls-7" d="M269.87,350.46c-1.3-1.5-19.41-14.15-20.77-15.1l3.09-.53S268.75,348.9,269.87,350.46Z"/><path class="cls-9" d="M269.87,350.46c-1.3-1.5-19.41-14.15-20.77-15.1l3.09-.53S268.75,348.9,269.87,350.46Z"/><path class="cls-7" d="M269.93,350.57h0v.06c-.14.32-1.38.6-2.77.79h-.05a12,12,0,0,1-3.88.08c-.39-.27-13.46-6.81-21.46-10.81l-.32-.15h-.06l-1.13-.57-3.3-1.64-1.28-.64,13.45-2.3c.77.53,6.88,4.8,12.29,8.69l.56.4,1.48,1.06a76.84,76.84,0,0,1,6.44,4.94v.07Z"/><g class="cls-10"><path d="M269.93,350.57h0v.06c-.14.32-1.38.6-2.77.79h-.05a12,12,0,0,1-3.88.08c-.4-.27-13.81-7-21.78-11,1.31.64,18.51,8.91,22,5a76.84,76.84,0,0,1,6.44,4.94v.07Z"/></g><path class="cls-7" d="M447.1,365.33h0c0,1.8-9.91,2.38-11.26,2s-109.35-42.88-109.35-42.88l39.69-15.71,1.15.79.5.35c7.32,5.06,29.17,20.21,48.25,33.54l1.13.79,1.5,1C431.94,354.51,443.41,362.58,447.1,365.33Z"/><path class="cls-7" d="M447.1,365.33c-9.66-7.21-72.67-50.87-80.92-56.58l5-2s73.4,55.83,75.62,58.05A.84.84,0,0,1,447.1,365.33Z"/><path class="cls-9" d="M447.1,365.33c-9.66-7.21-72.67-50.87-80.92-56.58l5-2s73.4,55.83,75.62,58.05A.84.84,0,0,1,447.1,365.33Z"/><g class="cls-11"><path class="cls-4" d="M447.1,365.33h0c0,1.8-9.91,2.38-11.26,2s-109.35-42.88-109.35-42.88l39.69-15.71s-9.81,11.22,13.48,28.49c15.87,11.77,32.77,14.21,39,8C431.94,354.51,443.41,362.58,447.1,365.33Z"/></g><path class="cls-7" d="M357.15,338.39c-3.07,1.49-6.4,2.65-6.65-.43-.09-1.26.89-2.61,5.82-5,1.15-.56,4-1.8,4.81.76S358.3,337.82,357.15,338.39Z"/><path class="cls-4" d="M357.15,338.39c-3.07,1.49-6.4,2.65-6.65-.43-.09-1.26.89-2.61,5.82-5,1.15-.56,4-1.8,4.81.76S358.3,337.82,357.15,338.39Z"/><path class="cls-7" d="M382.18,348.63c-3.07,1.49-6.41,2.66-6.65-.42-.1-1.27.88-2.62,5.82-5,1.15-.56,4-1.79,4.81.77S383.33,348.07,382.18,348.63Z"/><path class="cls-4" d="M382.18,348.63c-3.07,1.49-6.41,2.66-6.65-.42-.1-1.27.88-2.62,5.82-5,1.15-.56,4-1.79,4.81.77S383.33,348.07,382.18,348.63Z"/><path class="cls-7" d="M407.2,358.87c-3.06,1.49-6.4,2.66-6.64-.42-.1-1.26.88-2.61,5.81-5,1.16-.55,4-1.79,4.82.77S408.36,358.31,407.2,358.87Z"/><path class="cls-4" d="M407.2,358.87c-3.06,1.49-6.4,2.66-6.64-.42-.1-1.26.88-2.61,5.81-5,1.16-.55,4-1.79,4.82.77S408.36,358.31,407.2,358.87Z"/><path class="cls-7" d="M399,332c-3,5.37-9.86,7.3-14.19,9-11.51,4.6-19.85,7.18-24-3.27a13.32,13.32,0,0,1-.92-3.78c-.68-7.88,7.49-11.82,11.63-14h0c5-2.64,8.54-4.34,11.18-5.45,4.3-1.82,6.22-2,8.19-2.11,2.33-.08,7.58.51,9.31,10.15A13.67,13.67,0,0,1,399,332Z"/><path class="cls-12" d="M399.16,324.47c0,5.87-3.67,10.63-8.2,10.63s-8.2-4.76-8.2-10.63,3.67-10.63,8.2-10.63S399.16,318.6,399.16,324.47Z"/><path class="cls-2" d="M398.2,324.47c0,5.19-3.24,9.39-7.24,9.39s-7.25-4.2-7.25-9.39,3.25-9.4,7.25-9.4S398.2,319.28,398.2,324.47Z"/><path class="cls-7" d="M227.3,321.65l-1.9.7-4.28,1.55-14.8-6.39C192,311.36,175,304.12,171.75,303l.41.12.38.12.5.16.28.1,1.13.36,1.16.38,3.25,1.07,1.12.37,1,.35.57.19,1.77.59,1.17.39,15.23,5.12,1.44.49,5.67,1.91,9.78,3.31,1.38.47c1.58.53,3,1,4.26,1.44h0l1.09.37.5.17.26.08C226.14,321.27,227.3,321.65,227.3,321.65Z"/><path class="cls-9" d="M227.3,321.65l-1.9.7-4.28,1.55-14.8-6.39C192,311.36,175,304.12,171.75,303l.41.12.38.12.5.16.28.1,1.13.36,1.16.38,3.25,1.07,1.12.37,1,.35.57.19,1.77.59,1.17.39,15.23,5.12,1.44.49,5.67,1.91,9.78,3.31,1.38.47c1.58.53,3,1,4.26,1.44h0l1.09.37.5.17.26.08C226.14,321.27,227.3,321.65,227.3,321.65Z"/><path class="cls-7" d="M221.12,323.9l-11.46,4.18s-25.6-11.88-40.87-19.33l-.16-.07-.21-.1L164,306.42c-3.95-2-6.45-3.32-6.35-3.5.42-.85,9.92-1.06,13.72,0h.11l.24.08c3.16,1.07,19.11,7.85,33.12,13.87l.32.13,1.13.49Z"/><g class="cls-10"><path d="M221.12,323.9l-11.46,4.18s-25.6-11.88-40.87-19.33c2.53,1.08,28.44,12.49,34.82,10.9a3.66,3.66,0,0,0,2.71-2.14Z"/></g><path class="cls-7" d="M250.61,307.56,222.8,320.94s.28-23.85.5-41V276.8c.07-5.87.14-10.6.17-12.75.1-6.9.84-8.3,2.67-7.18s10,8.19,12.39,11.34c2,2.58,6.44,18.24,9.33,29a.43.43,0,0,0,.06.27c.17.63.34,1.24.49,1.82C249.74,304.14,250.61,307.56,250.61,307.56Z"/><g class="cls-10"><path d="M250.61,307.56,222.8,320.94s.28-23.85.5-41c4.09,9.14,12.18,21.62,25.15,19.36C249.74,304.14,250.61,307.56,250.61,307.56Z"/></g><path class="cls-7" d="M203.37,335.52c-2.86-7.16,9.29-13.66,23.09-19.85S376.28,249.49,396,244.14s42.68,2,46.56,13.23c5.82,16.9-18.71,31.06-106.82,67.59-11.55,4.79-63.19,17.19-92.23,17.28C212.45,342.34,204.78,339,203.37,335.52Z"/><path class="cls-9" d="M203.37,335.52c-2.86-7.16,9.29-13.66,23.09-19.85S376.28,249.49,396,244.14s42.68,2,46.56,13.23c5.82,16.9-18.71,31.06-106.82,67.59-11.55,4.79-63.19,17.19-92.23,17.28C212.45,342.34,204.78,339,203.37,335.52Z"/><path class="cls-4" d="M335.73,325c-11.55,4.79-63.19,17.18-92.23,17.28-31.05.1-38.72-3.2-40.13-6.72-1.5-3.74,1.11-7.31,5.92-10.75a5,5,0,0,0,.37,2.12c1.29,3.2,8.25,6.19,36.42,6.1,26.35-.09,64.25-21.43,74.72-25.77C400.75,274.07,432,271.31,426.69,256c-2.3-6.68-12-11.83-23.43-13.24,17.72-2.12,35.88,4.73,39.29,14.63C448.37,274.27,423.84,288.43,335.73,325Z"/><polygon class="cls-2" points="246.49 311.92 249.61 310.56 249.61 315.16 246.49 316.51 246.49 311.92"/><polygon class="cls-2" points="252.19 309.45 255.53 308 255.53 312.6 252.19 314.04 252.19 309.45"/><polygon class="cls-2" points="258.1 306.89 261.44 305.44 261.44 310.04 258.1 311.48 258.1 306.89"/><polygon class="cls-2" points="264.02 304.33 267.35 302.88 267.35 307.48 264.02 308.92 264.02 304.33"/><polygon class="cls-2" points="269.93 301.77 273.27 300.32 273.27 304.92 269.93 306.36 269.93 301.77"/><polygon class="cls-2" points="275.85 299.21 279.18 297.76 279.18 302.36 275.85 303.81 275.85 299.21"/><polygon class="cls-2" points="281.76 296.65 285.1 295.2 285.1 299.8 281.76 301.25 281.76 296.65"/><polygon class="cls-2" points="287.67 294.09 291.01 292.64 291.01 297.24 287.67 298.69 287.67 294.09"/><polygon class="cls-2" points="293.59 291.53 296.92 290.08 296.92 294.68 293.59 296.13 293.59 291.53"/><polygon class="cls-2" points="299.5 288.97 302.84 287.52 302.84 292.12 299.5 293.56 299.5 288.97"/><polygon class="cls-2" points="305.42 286.41 308.75 284.96 308.75 289.56 305.42 291 305.42 286.41"/><polygon class="cls-2" points="311.33 283.85 314.67 282.4 314.67 287 311.33 288.44 311.33 283.85"/><polygon class="cls-2" points="317.24 281.29 320.58 279.85 320.58 284.44 317.24 285.88 317.24 281.29"/><polygon class="cls-2" points="323.16 278.73 326.49 277.29 326.49 281.88 323.16 283.32 323.16 278.73"/><polygon class="cls-2" points="329.07 276.17 332.41 274.73 332.41 279.32 329.07 280.76 329.07 276.17"/><polygon class="cls-2" points="334.98 273.61 338.32 272.17 338.32 276.76 334.98 278.21 334.98 273.61"/><polygon class="cls-2" points="340.9 271.05 344.24 269.61 344.24 274.2 340.9 275.65 340.9 271.05"/><polygon class="cls-2" points="346.81 268.49 350.15 267.05 350.15 271.64 346.81 273.09 346.81 268.49"/><polygon class="cls-2" points="352.73 265.93 356.06 264.49 356.06 269.08 352.73 270.53 352.73 265.93"/><polygon class="cls-2" points="358.64 263.37 361.98 261.93 361.98 266.52 358.64 267.97 358.64 263.37"/><polygon class="cls-2" points="364.55 260.81 367.89 259.37 367.89 263.96 364.55 265.41 364.55 260.81"/><polygon class="cls-2" points="373.81 256.81 373.81 261.4 370.47 262.85 370.47 258.25 373.81 256.81"/><polygon class="cls-2" points="379.72 254.25 379.72 258.84 376.38 260.29 376.38 255.69 379.72 254.25"/><polygon class="cls-2" points="385.63 251.69 385.63 256.28 382.3 257.73 382.3 253.13 385.63 251.69"/><polygon class="cls-2" points="391.55 249.13 391.55 253.72 388.21 255.17 388.21 250.57 391.55 249.13"/><path class="cls-2" d="M407,247.25a16.1,16.1,0,0,1,6.2-2.89v3C411.22,247.34,409.18,247.29,407,247.25Z"/><path class="cls-2" d="M420.47,243.63v4.22c-1.56-.14-3.11-.23-4.68-.31v-3.69A24.43,24.43,0,0,1,420.47,243.63Z"/><path class="cls-2" d="M435.34,249.59a30.76,30.76,0,0,1-3.71-.4c-1.2-.14-2.37-.36-3.54-.47-1.7-.26-3.38-.44-5-.6V243.9a23.82,23.82,0,0,1,5.92,1.61,21.16,21.16,0,0,1,3.38,1.74,12.17,12.17,0,0,1,1.56,1.1C434.4,248.75,434.89,249.15,435.34,249.59Z"/><path class="cls-7" d="M329.07,287l-39.2,18.86s-62.3-33.4-107-57.8l-.1-.06h0c-23.86-13-42.08-23.16-41.78-23.55.75-1,12.75-.89,17.5-.24a7.91,7.91,0,0,1,1.36.24c2,.55,72.51,26.66,121.87,45Z"/><g class="cls-10"><path d="M329.07,287l-39.2,18.86s-62.3-33.4-107-57.8c3.5,1.76,83.65,42.15,94.12,36.09,3.95-2.29,5-8.2,4.71-14.73Z"/></g><path class="cls-7" d="M334.79,284.45l-11.64,5.6c-29.78-12.48-153.65-61.45-164-65.56l-.32-.13-.26-.08h-.09a7.91,7.91,0,0,1,1.36.24C162.92,225.34,334.79,284.45,334.79,284.45Z"/><path class="cls-9" d="M334.79,284.45l-11.64,5.6c-29.78-12.48-153.65-61.45-164-65.56l-.32-.13-.26-.08h-.09a7.91,7.91,0,0,1,1.36.24C162.92,225.34,334.79,284.45,334.79,284.45Z"/><path class="cls-7" d="M250.84,285.36c-3.83,1.86-8,3.32-8.3-.53-.12-1.58,1.1-3.27,7.27-6.23,1.44-.7,5-2.25,6,1S252.29,284.66,250.84,285.36Z"/><path class="cls-4" d="M250.84,285.36c-3.83,1.86-8,3.32-8.3-.53-.12-1.58,1.1-3.27,7.27-6.23,1.44-.7,5-2.25,6,1S252.29,284.66,250.84,285.36Z"/><path class="cls-7" d="M217.67,268.6c-3.83,1.86-8,3.32-8.3-.53-.12-1.58,1.1-3.26,7.27-6.23,1.44-.7,5-2.24,6,1S219.12,267.9,217.67,268.6Z"/><path class="cls-4" d="M217.67,268.6c-3.83,1.86-8,3.32-8.3-.53-.12-1.58,1.1-3.26,7.27-6.23,1.44-.7,5-2.24,6,1S219.12,267.9,217.67,268.6Z"/><path class="cls-7" d="M184.4,251.64c-3.57,1.74-7.46,3.1-7.74-.49-.11-1.47,1-3,6.77-5.8,1.35-.65,4.64-2.09,5.6.89S185.74,251,184.4,251.64Z"/><path class="cls-4" d="M184.4,251.64c-3.57,1.74-7.46,3.1-7.74-.49-.11-1.47,1-3,6.77-5.8,1.35-.65,4.64-2.09,5.6.89S185.74,251,184.4,251.64Z"/><path class="cls-7" d="M300.33,281.56c-3,5.37-9.86,7.3-14.19,9-11.51,4.6-19.85,7.19-24-3.27a13.32,13.32,0,0,1-.92-3.78c-.68-7.88,7.49-11.82,11.63-14h0c5-2.63,8.54-4.34,11.18-5.45,4.3-1.81,6.22-2,8.19-2.11,2.33-.08,7.58.51,9.31,10.15A13.67,13.67,0,0,1,300.33,281.56Z"/><ellipse class="cls-12" cx="292.27" cy="274.07" rx="8.2" ry="10.63"/><path class="cls-2" d="M299.51,274.07c0,5.19-3.24,9.39-7.24,9.39s-7.25-4.2-7.25-9.39,3.25-9.39,7.25-9.39S299.51,268.88,299.51,274.07Z"/><path class="cls-7" d="M175.61,304.26l-1.16-.38Z"/></g><path class="cls-2" d="M375.81,277.73a.88.88,0,0,1-.16.69,1.69,1.69,0,0,1-.73.43l-.25.09a1.25,1.25,0,0,1-.72.07.87.87,0,0,1-.53-.42l-2-3.27a3,3,0,0,1-.18-.36.25.25,0,0,1,.14-.35,12,12,0,0,1,1.29-.51.32.32,0,0,1,.43.16c.52.94,1,1.9,1.52,2.88-.1-.5-.24-1.35-.4-2.56a1,1,0,0,1,.07-.66.9.9,0,0,1,.52-.38l.24-.09a1,1,0,0,1,.64,0,1,1,0,0,1,.46.43c.57.89,1,1.64,1.39,2.27q-.33-1.32-.69-3.15a.31.31,0,0,1,.22-.41,10.82,10.82,0,0,1,1.24-.39.27.27,0,0,1,.34.19s0,.15.05.3l.51,3.89a.9.9,0,0,1-.15.67,1.5,1.5,0,0,1-.68.43l-.24.08c-.61.21-1,.1-1.3-.33-.72-1.17-1.16-1.91-1.33-2.2.06.37.17,1.22.32,2.54"/><path class="cls-2" d="M379.8,271a1,1,0,0,1-.64-1.79,1,1,0,0,1,.75,0,.93.93,0,0,1,.49.61.85.85,0,0,1-.6,1.22m2.5,5.2-1.2.42c-.19.07-.33,0-.41-.22l-1.48-4.22a.29.29,0,0,1,.18-.43l1.21-.43a.27.27,0,0,1,.25,0,.43.43,0,0,1,.15.22l1.49,4.23a.29.29,0,0,1-.19.43"/><path class="cls-2" d="M385.51,275a.28.28,0,0,1-.18.17l-1.23.43c-.18.07-.31,0-.38-.23l-1.12-3.14-.37.13a.33.33,0,0,1-.48-.23l-.25-.69a.42.42,0,0,1,0-.27.32.32,0,0,1,.22-.2l.39-.14-.12-.34a2,2,0,0,1,0-1.66,3.63,3.63,0,0,1,2-1.31c.3-.11.49-.06.58.13s.15.37.29.75a.34.34,0,0,1-.22.46,3.67,3.67,0,0,0-.64.34.54.54,0,0,0-.19.28,1,1,0,0,0,.08.49l.07.23.68-.24a.32.32,0,0,1,.46.23l.26.73a.31.31,0,0,1-.24.44l-.66.23,1.12,3.18a.31.31,0,0,1,0,.23"/><path class="cls-2" d="M389.08,272.16a1.85,1.85,0,0,0,.73-.1.3.3,0,0,1,.38.23,7.76,7.76,0,0,1,.23.75.35.35,0,0,1-.27.46,6.26,6.26,0,0,1-1.48.39,1.3,1.3,0,0,1-.89-.18,1.42,1.42,0,0,1-.5-.53,7.27,7.27,0,0,1-.42-1l-.46-1.31L386,271a.39.39,0,0,1-.26,0,.34.34,0,0,1-.17-.2l-.27-.76a.36.36,0,0,1,0-.27.34.34,0,0,1,.22-.18l.43-.15c-.09-.28-.18-.6-.28-.95s0-.41.2-.48l1.09-.38q.29-.11.42.27l.33.92.63-.23c.25-.09.42,0,.49.19l.27.77a.29.29,0,0,1,0,.26.41.41,0,0,1-.23.17l-.66.24.47,1.34c.13.34.26.54.42.6"/><path class="cls-2" d="M368,278.13a6.2,6.2,0,0,1-1,.91,3.11,3.11,0,0,1-.93.46,1.26,1.26,0,0,1-1.58-.71,3.75,3.75,0,0,1-.27-1.81,8,8,0,0,1,1.32-3.74c0-.05.11-.1.06-.17s-.12,0-.18,0l-1,.13c-.06,0-.15.05-.19,0s.05-.1.09-.14a24.52,24.52,0,0,1,3.82-3.38c.54-.41,1.1-.79,1.66-1.17l.14-.09s.08-.07.13,0,0,.09,0,.13c-.2.73-.35,1.46-.49,2.2a22.73,22.73,0,0,0-.41,4.2c0,.05,0,.12,0,.15s-.1,0-.14-.08c-.34-.33-.65-.68-1-1s-.33-.38-.63,0a12,12,0,0,0-1.31,2.21,5.23,5.23,0,0,0-.48,1.78,2.68,2.68,0,0,0,0,.4.56.56,0,0,0,.67.5,3.37,3.37,0,0,0,1.19-.45l.51-.29,0,0"/><path class="cls-2" d="M366.65,277.69a2.4,2.4,0,0,1,.46-.68,5.57,5.57,0,0,1,1.82-1.52,1.63,1.63,0,0,1,2.39.94,3.75,3.75,0,0,1,.14,2,8.34,8.34,0,0,1-1.32,3.13,33.49,33.49,0,0,1-2.3,2.89c-.08.09-.17.19-.31.11s-.15-.22,0-.38l.94-1.14.2-.24c.05-.08.06-.16,0-.22s-.14,0-.19.05l-.49.57c-.32.37-.64.75-1,1.12-.09.11-.19.17-.33.08s-.11-.2,0-.35l1.19-1.4c.07-.08.22-.18.07-.3s-.21.05-.28.13-.36.42-.54.64l-.18.18a.18.18,0,0,1-.24,0,.17.17,0,0,1-.05-.23,1.28,1.28,0,0,1,.14-.21,14.11,14.11,0,0,0,1.65-2.34,9.46,9.46,0,0,0,.92-2.38,2,2,0,0,0,0-1,.67.67,0,0,0-.7-.53,2.08,2.08,0,0,0-1.24.48c-.26.17-.5.39-.76.58"/><path class="cls-2" d="M366.41,285.69a.18.18,0,0,1-.21,0,.2.2,0,0,1,0-.24,5.43,5.43,0,0,1,.7-.81.18.18,0,0,1,.25,0,.19.19,0,0,1,0,.25,8.6,8.6,0,0,1-.67.8l-.07,0"/><path class="cls-2" d="M366.3,283.52a.17.17,0,0,1,.21.05.18.18,0,0,1,0,.23,6.23,6.23,0,0,1-.67.79.17.17,0,0,1-.25,0,.21.21,0,0,1-.05-.27,1.32,1.32,0,0,1,.24-.29l.3-.37a.4.4,0,0,1,.2-.16"/><path class="cls-2" d="M375,281.51s0,0,0,.05a1.22,1.22,0,0,1-.43.23.57.57,0,0,1-.48,0,1,1,0,0,1-.32-.5,1,1,0,0,1-.06-.61.61.61,0,0,1,.41-.34,1.57,1.57,0,0,1,.36-.09s.06,0,.07,0a.53.53,0,0,1,0,.13s0,0,0,0h-.07l-.28.07a.38.38,0,0,0-.26.23.85.85,0,0,0,.06.42,1.23,1.23,0,0,0,.09.22.58.58,0,0,0,.11.15.34.34,0,0,0,.15.07.38.38,0,0,0,.2,0,.9.9,0,0,0,.24-.12.06.06,0,0,0,0-.07l-.1-.29-.26.09s-.05,0-.05,0l-.05-.13s0,0,0-.05l.41-.14s.05,0,.06,0l.19.55S375,281.49,375,281.51Z"/><path class="cls-2" d="M375.51,281.4a.21.21,0,0,1-.17,0,.2.2,0,0,1-.1-.13l-.4-1.14s0-.05,0-.07l.13,0a0,0,0,0,1,.06,0l.38,1.06a.06.06,0,0,0,.09.05L376,281a0,0,0,0,1,.06,0l0,.11a0,0,0,0,1,0,.06Z"/><path class="cls-2" d="M377.34,280.37a.53.53,0,0,1,0,.26.52.52,0,0,1-.15.18.65.65,0,0,1-.25.12.73.73,0,0,1-.26.06.42.42,0,0,1-.22-.05.62.62,0,0,1-.18-.18,1.44,1.44,0,0,1-.16-.35A1.52,1.52,0,0,1,376,280a.67.67,0,0,1,.05-.26.5.5,0,0,1,.15-.17.82.82,0,0,1,.23-.11l.21-.06a.37.37,0,0,1,.18,0,.27.27,0,0,1,.16.08,1,1,0,0,1,.14.18,2.93,2.93,0,0,1,.13.29A1.63,1.63,0,0,1,377.34,280.37Zm-.48-.6a.24.24,0,0,0-.16-.11.44.44,0,0,0-.21,0,.53.53,0,0,0-.15.08.31.31,0,0,0-.08.11.38.38,0,0,0,0,.19,1.13,1.13,0,0,0,.07.26,1.78,1.78,0,0,0,.12.27.34.34,0,0,0,.12.14.38.38,0,0,0,.13,0l.16,0a.37.37,0,0,0,.14-.07.24.24,0,0,0,.09-.11.38.38,0,0,0,0-.19,1.41,1.41,0,0,0-.07-.28A1.55,1.55,0,0,0,376.86,279.77Z"/><path class="cls-2" d="M378,280.53a.24.24,0,0,1-.17,0s-.07-.06-.1-.13l-.34-1a.18.18,0,0,1,.12-.27l.22-.08.21-.06a.43.43,0,0,1,.28,0,.39.39,0,0,1,.16.21.43.43,0,0,1,0,.22.27.27,0,0,1-.12.16.41.41,0,0,1,.23,0,.44.44,0,0,1,.13.2.35.35,0,0,1-.07.43,1.2,1.2,0,0,1-.36.17Zm0-.89c.09,0,.15-.06.17-.09s.06-.11,0-.2,0-.1-.07-.11a.2.2,0,0,0-.11,0,.41.41,0,0,0-.16,0l-.16.05s0,.05,0,.1l.11.31Zm0,.61s0,.05,0,.05H378l.16-.06.18-.08a.22.22,0,0,0,0-.25.19.19,0,0,0-.18-.14.51.51,0,0,0-.2.05l-.22.08Z"/><path class="cls-2" d="M379.15,280.05v.06l0,0-.16,0,0,0s0,0,0-.07V278.8a.39.39,0,0,1,0-.13.19.19,0,0,1,.11-.07l0,0a.17.17,0,0,1,.12,0l.09.1.8,1a.09.09,0,0,1,0,.06s0,0,0,0a.51.51,0,0,1-.15.07h0l0,0-.23-.29-.5.18Zm.38-.71-.41-.55c0,.07,0,.3,0,.68Z"/><path class="cls-2" d="M380.56,279.62a.3.3,0,0,1-.16,0,.17.17,0,0,1-.1-.13l-.41-1.14s0-.06,0-.07l.13-.05a.05.05,0,0,1,.07,0l.37,1.06c0,.05.05.06.1,0l.5-.17s.06,0,.07,0l0,.11s0,0,0,.06Z"/><path class="cls-2" d="M382.18,279.05a.22.22,0,0,1-.16,0s-.08-.06-.1-.12l-.41-1.14s0-.06,0-.07l.13-.05a0,0,0,0,1,.06,0l.37,1.06c0,.05.05.07.1.05l.51-.18s0,0,.06,0l0,.1a0,0,0,0,1,0,.06Z"/><path class="cls-2" d="M384,278a.44.44,0,0,1,0,.26.49.49,0,0,1-.14.18.83.83,0,0,1-.25.13,1,1,0,0,1-.26.05.34.34,0,0,1-.22-.05.46.46,0,0,1-.19-.18,2.2,2.2,0,0,1-.16-.34,1.62,1.62,0,0,1-.08-.38.53.53,0,0,1,.05-.26.61.61,0,0,1,.15-.17.9.9,0,0,1,.22-.11l.22-.06a.47.47,0,0,1,.17,0,.3.3,0,0,1,.16.08.54.54,0,0,1,.14.18,1.32,1.32,0,0,1,.13.29A1.77,1.77,0,0,1,384,278Zm-.47-.6a.28.28,0,0,0-.16-.11.38.38,0,0,0-.22,0,.37.37,0,0,0-.14.07.28.28,0,0,0-.08.11.38.38,0,0,0,0,.19,1.22,1.22,0,0,0,.06.27,1.29,1.29,0,0,0,.12.26.36.36,0,0,0,.13.14.22.22,0,0,0,.13,0,.37.37,0,0,0,.16,0,.37.37,0,0,0,.14-.07.24.24,0,0,0,.08-.11.37.37,0,0,0,0-.19,1.56,1.56,0,0,0-.08-.28A1.2,1.2,0,0,0,383.54,277.41Z"/><path class="cls-2" d="M385.45,277.81l0,.05a1.48,1.48,0,0,1-.44.23.54.54,0,0,1-.47,0,.89.89,0,0,1-.33-.49,1,1,0,0,1-.06-.61.63.63,0,0,1,.42-.34,1.57,1.57,0,0,1,.36-.09.06.06,0,0,1,.06,0,.51.51,0,0,1,0,.13,0,0,0,0,1,0,0l-.07,0-.27.07a.36.36,0,0,0-.26.23.74.74,0,0,0,.05.42l.1.22a.83.83,0,0,0,.11.15.26.26,0,0,0,.15.07l.19,0a1.33,1.33,0,0,0,.24-.12s0,0,0-.07l-.11-.3-.26.1s0,0,0,0l0-.12s0,0,0-.05l.41-.15a0,0,0,0,1,.06,0l.2.55A.25.25,0,0,1,385.45,277.81Z"/><path class="cls-2" d="M386,277.71l-.12.05s-.06,0-.07,0l-.45-1.28s0-.06,0-.07l.13-.05s.05,0,.06,0l.45,1.28S386,277.7,386,277.71Z"/><path class="cls-2" d="M386.94,276.65a.39.39,0,0,1,.15.22.42.42,0,0,1,0,.35.62.62,0,0,1-.35.25,1.46,1.46,0,0,1-.42.08s-.06,0-.06,0a.31.31,0,0,1,0-.11s0-.06,0-.07h.07a.91.91,0,0,0,.32-.06.32.32,0,0,0,.2-.13.22.22,0,0,0,0-.16.19.19,0,0,0-.08-.11.53.53,0,0,0-.2,0l-.2,0a.37.37,0,0,1-.43-.28.4.4,0,0,1,0-.34.61.61,0,0,1,.34-.24,1.25,1.25,0,0,1,.36-.08.05.05,0,0,1,.06,0,.28.28,0,0,1,0,.1,0,0,0,0,1,0,.06h-.07l-.29.07a.26.26,0,0,0-.17.12.22.22,0,0,0,0,.16.23.23,0,0,0,.08.11.34.34,0,0,0,.19,0l.18,0A.64.64,0,0,1,386.94,276.65Z"/><path class="cls-2" d="M388,277l-.13.05a.05.05,0,0,1-.07,0l-.4-1.13-.36.13a0,0,0,0,1-.06,0l0-.11a0,0,0,0,1,0-.06l.95-.33s.05,0,.06,0l0,.11s0,0,0,.06l-.36.12.4,1.13S388,277,388,277Z"/><path class="cls-2" d="M388.9,276.68l-.13,0s0,0-.07,0l-.45-1.28s0-.06,0-.07l.13,0s0,0,.06,0l.46,1.28A.05.05,0,0,1,388.9,276.68Z"/><path class="cls-2" d="M389.44,276.15a.31.31,0,0,0,.33,0,1.66,1.66,0,0,0,.27-.13l.06,0a0,0,0,0,1,0,0,.24.24,0,0,1,.06.09.06.06,0,0,1,0,.07,1.35,1.35,0,0,1-.38.2.56.56,0,0,1-.46,0,.91.91,0,0,1-.33-.49,1.12,1.12,0,0,1-.07-.62.6.6,0,0,1,.4-.33,1.08,1.08,0,0,1,.34-.08,0,0,0,0,1,.06,0,.25.25,0,0,1,0,.13s0,0,0,0h-.06a.9.9,0,0,0-.24.07c-.15.05-.24.12-.26.22a.93.93,0,0,0,.06.43A.94.94,0,0,0,389.44,276.15Z"/><path class="cls-2" d="M391.09,275.18a.43.43,0,0,1,.16.22.46.46,0,0,1,0,.35.62.62,0,0,1-.35.25,1.35,1.35,0,0,1-.42.08.06.06,0,0,1-.06,0,.75.75,0,0,1,0-.11s0-.06,0-.06h.07a1.28,1.28,0,0,0,.33-.06.33.33,0,0,0,.19-.14.18.18,0,0,0,0-.16.2.2,0,0,0-.09-.11.38.38,0,0,0-.2,0h-.19a.38.38,0,0,1-.44-.27.42.42,0,0,1,0-.35.63.63,0,0,1,.34-.24,1.53,1.53,0,0,1,.35-.08.07.07,0,0,1,.06,0,.27.27,0,0,1,0,.11,0,0,0,0,1,0,.05h-.07a1.91,1.91,0,0,0-.28.07.46.46,0,0,0-.18.12.25.25,0,0,0,0,.17.27.27,0,0,0,.08.1.34.34,0,0,0,.19,0h.19A.53.53,0,0,1,391.09,275.18Z"/></svg>